<svg id="Capa_1" enable-background="new 0 0 512.077 512.077" height="512" viewBox="0 0 512.077 512.077" width="512" xmlns="http://www.w3.org/2000/svg"><g id="XMLID_1953_"><g id="XMLID_1888_"><path id="XMLID_734_" d="m235.557 387.333c-4.023 26.611 13.89 52.628 41.78 59.402 29.419 7.146 58.797-9.826 65.618-37.906 21.799 5.295 43.567-7.281 48.621-28.088s-8.52-41.967-30.319-47.262c-3.107-.755-6.212-1.135-9.269-1.191 8.629-15.485 5.204-35.401-9.377-47.76z" fill="#ff7b79"/></g><g id="XMLID_733_"><path d="m438.172 247.845-54.359-54.359c11.45 1.435 23.418-2.242 32.21-11.034l9.815-9.815c15.115-15.115 15.115-39.622 0-54.737-15.115-15.115-39.622-15.115-54.737 0l-9.815 9.815c-8.791 8.791-12.469 20.76-11.034 32.21l-40.577-40.577c-11.868-11.868-11.868-31.11 0-42.978l26.328-26.328c9.375-9.375 9.169-24.701-.616-33.815-9.321-8.681-23.995-8.014-33.002.993l-25.93 25.93c-30.215 30.215-30.215 79.203 0 109.418l18.972 18.972-64.553 64.552-91.02-4.442c-17.443-.852-33.607 9.129-40.66 25.105l-45.218 102.434c-4.397 9.961-1.942 21.214 5.322 28.478 2.177 2.177 4.787 3.996 7.772 5.314 12.948 5.715 28.076-.147 33.792-13.095l41.729-94.528 88.282 11.678c7.85 1.038 11.102 10.627 5.503 16.226l-145.069 145.069c-10.007 10.007-10.007 26.232 0 36.24v.001c10.007 10.007 26.233 10.007 36.24 0l245.456-245.456 31.95 31.95c7.896 7.896 10.444 19.746 6.489 30.19l-17.561 46.379c-3.378 8.919-.97 18.609 5.363 24.941 2.281 2.281 5.074 4.128 8.287 5.344 12.132 4.594 25.692-1.518 30.285-13.65l17.56-46.378c10.486-27.689 3.733-59.109-17.204-80.047z" fill="#c3d3dd"/></g><g id="XMLID_23_"><path id="XMLID_207_" d="m445.243 240.774-39.904-39.899c6.572-2.395 12.629-6.226 17.754-11.352l9.816-9.814c18.99-18.99 18.99-49.891 0-68.881s-49.89-18.99-68.88 0l-9.815 9.815c-5.125 5.125-8.956 11.181-11.352 17.75l-26.116-26.115c-7.95-7.951-7.95-20.888 0-28.837l26.327-26.327c6.485-6.484 9.967-15.106 9.804-24.277-.163-9.169-3.954-17.666-10.676-23.928-13.254-12.342-33.85-11.797-46.887 1.24l-25.93 25.93c-34.065 34.065-34.065 89.494 0 123.56l11.901 11.901-54.349 54.349-86.594-4.228c-21.431-1.058-41.634 11.435-50.296 31.056l-45.218 102.433c-5.896 13.357-2.923 29.266 7.398 39.588 3.114 3.113 6.749 5.601 10.806 7.392 17.972 7.933 39.046-.234 46.978-18.206l38.701-87.669 79.953 10.576-144.428 144.428c-6.729 6.729-10.435 15.676-10.435 25.191s3.706 18.462 10.435 25.191c6.729 6.728 15.675 10.435 25.191 10.435s18.462-3.706 25.19-10.435l12.413-12.412c3.905-3.905 3.906-10.236.001-14.142-3.904-3.905-10.236-3.905-14.142-.001l-12.413 12.414c-2.951 2.952-6.875 4.577-11.048 4.577-4.174 0-8.098-1.625-11.049-4.577-6.093-6.092-6.093-16.006 0-22.098l145.067-145.068c5.301-5.301 7.099-13.005 4.692-20.104-2.407-7.1-8.52-12.123-15.954-13.107l-88.282-11.678c-4.406-.577-8.665 1.811-10.46 5.876l-41.729 94.527c-3.479 7.882-12.721 11.468-20.604 7.985-1.786-.788-3.381-1.877-4.741-3.237-4.527-4.527-5.831-11.507-3.244-17.368l45.218-102.435c5.343-12.104 17.816-19.796 31.023-19.155l91.02 4.443c2.826.133 5.564-.922 7.559-2.917l64.553-64.553c3.905-3.905 3.905-10.237 0-14.143l-18.973-18.973c-26.267-26.267-26.267-69.007 0-95.274l25.93-25.93c5.295-5.298 13.871-5.629 19.115-.747 2.714 2.528 4.245 5.954 4.31 9.646.065 3.695-1.337 7.168-3.95 9.78l-26.327 26.327c-15.748 15.748-15.748 41.372 0 57.121l40.576 40.576c3.022 3.021 7.629 3.789 11.466 1.911 3.838-1.878 6.059-5.986 5.527-10.226-1.112-8.873 1.871-17.583 8.183-23.896l9.815-9.815c5.422-5.422 12.63-8.407 20.298-8.407 7.667 0 14.876 2.985 20.297 8.407 5.422 5.422 8.408 12.63 8.408 20.298s-2.986 14.876-8.407 20.298l-9.816 9.815c-6.312 6.312-15.028 9.291-23.905 8.175-4.235-.532-8.35 1.686-10.229 5.525-1.879 3.838-1.111 8.446 1.911 11.468l54.373 54.367c18.161 18.161 24.019 45.416 14.924 69.435l-17.561 46.378c-1.276 3.37-3.788 6.041-7.072 7.522-3.285 1.481-6.95 1.594-10.32.318-1.809-.686-3.41-1.716-4.757-3.065-3.75-3.749-4.959-9.373-3.082-14.329l17.56-46.379c5.345-14.114 1.902-30.13-8.77-40.803l-31.949-31.949c-3.905-3.904-10.238-3.904-14.142 0l-169.401 169.405c-3.905 3.905-3.905 10.237 0 14.143 3.906 3.904 10.237 3.905 14.143 0l16.134-16.134c1.823 7.312 5.002 14.341 9.478 20.746 9.147 13.09 22.889 22.413 38.693 26.252 5.319 1.291 10.64 1.909 15.868 1.909 25.814 0 49.347-15.064 58.982-38.423 1.05.064 2.096.095 3.137.095 18.711-.001 35.888-10.161 44.293-26.228 2.092 1.395 4.338 2.559 6.734 3.467 8.366 3.166 17.464 2.886 25.62-.788 8.156-3.676 14.392-10.308 17.559-18.674l17.561-46.378c11.873-31.361 4.224-66.947-19.488-90.66zm-72.241 22.484 24.878 24.878c5.121 5.121 6.773 12.806 4.208 19.578l-12.05 31.824c-6.296-7.055-14.67-12.487-24.477-15.266 3.147-14.739-.958-30.534-11.302-42.272zm8.857 115.122c-3.745 15.416-20.138 24.716-36.544 20.73-2.579-.626-5.297-.202-7.562 1.178s-3.889 3.603-4.515 6.18c-5.509 22.679-29.529 36.386-53.54 30.55-21.683-5.267-36.447-25.166-34.522-45.933l94.91-94.91c7.37 8.978 8.791 21.153 3.168 31.245-1.71 3.069-1.685 6.811.067 9.855 1.752 3.045 4.974 4.947 8.486 5.011 2.401.044 4.787.35 7.091.91 16.404 3.985 26.705 19.768 22.961 35.184z"/><path id="XMLID_209_" d="m171.778 440.337c-2.63 0-5.21 1.07-7.07 2.93s-2.93 4.44-2.93 7.07 1.07 5.21 2.93 7.07c1.86 1.859 4.44 2.93 7.07 2.93 2.64 0 5.21-1.07 7.07-2.93s2.93-4.44 2.93-7.07-1.07-5.21-2.93-7.07-4.43-2.93-7.07-2.93z"/></g></g></svg>